<svg xmlns="http://www.w3.org/2000/svg" width="1752" height="300" viewBox="0 0 1752 300">
  <defs>
    <style>
      .cls-1 {
        fill: #fff;
      }

      .cls-1, .cls-2 {
        fill-rule: evenodd;
      }

      .cls-2 {
        fill: #edf2f4;
      }
    </style>
  </defs>
  <path id="Forma_1" data-name="Forma 1" class="cls-1" d="M167.972,132V-0.005H299.944V132H167.972ZM275.949,24H191.967v84h83.982V24ZM248.955,81H218.961V51h29.994V81ZM0.008,168H131.98V300.01H0.008V168ZM24,276.008h83.982V192H24v84Zm20.782-42,21.209-21.214L87.2,234.006,65.994,255.221ZM0.008-.005H131.98V132H0.008V-0.005ZM24,108h83.982V24H24v84ZM51,51H80.991V81H51V51ZM206.964,168h24v30h44.99V168h24v78H245.956v-24h-15v30h68.985v48h-24v-24h-9v24h-12v-24h-9v24H221.961v-24H191.967v24h-24V168h38.992Zm-15,84h15v-30h-15v30Zm0-54h15v-6h-15v6Z"/>
  <path id="Forma_2" data-name="Forma 2" class="cls-2" d="M1662.11,286.082h-35.37l28.99-67.31L1599.2,75.7h34.79l24.93,65.562,14.79,41.377,16.52-41.377L1717.19,75.7h34.79ZM1535.42,132.814q31.89,3.5,46.39,14.278t14.49,31.178a37.544,37.544,0,0,1-7.68,23.456q-7.695,10.053-21.74,15.735-14.07,5.682-32.33,5.682-36.24,0-64.64-21.271l15.07-23.6a70.936,70.936,0,0,0,22.9,11.8,90.6,90.6,0,0,0,27.54,4.225q13.62,0,21.16-4.225t7.54-12.092q0-7.575-7.39-11.656t-23.92-5.827q-28.11-2.624-43.34-14.133-15.21-11.506-15.21-30.158a36.048,36.048,0,0,1,7.82-23.019q7.83-9.9,21.89-15.443t32.32-5.536q33.045,0,56.82,16.609l-14.2,23.311a75.025,75.025,0,0,0-41.17-12.239q-15.36,0-23.48,4.225t-8.12,12.093q0,6.993,6.82,10.927Q1519.755,131.065,1535.42,132.814Zm-116.53,67.6a56.938,56.938,0,0,1-22.03,16.464,74.388,74.388,0,0,1-30.15,5.973q-20.88,0-36.96-9.47a65.253,65.253,0,0,1-25.08-26.662q-8.985-17.189-8.99-39.045t8.99-39.046a65.309,65.309,0,0,1,25.08-26.662q16.08-9.466,36.96-9.47a74.388,74.388,0,0,1,30.15,5.973,56.982,56.982,0,0,1,22.03,16.463l0.29-19.231h28.99V219.647h-28.99Zm-15.37-85.521q-12.165-12.675-31.59-12.675t-31.6,12.675q-12.18,12.675-12.18,32.781t12.18,32.78q12.165,12.675,31.6,12.676,19.41,0,31.59-12.676t12.18-32.78Q1415.7,127.569,1403.52,114.894Zm-157.26,72.118q5.07,5.832,14.93,5.827a42.024,42.024,0,0,0,17.97-4.371l8.99,26.225a79.889,79.889,0,0,1-15.8,5.391,77.7,77.7,0,0,1-16.38,1.6q-22.6,0-34.78-13.112t-12.18-38.463V103.384h-26.96V75.7h26.96V38.114l32.18-3.5V75.7h41.16v27.682h-41.16v66.727Q1241.19,181.189,1246.26,187.012Zm-135.52-54.2q31.875,3.5,46.38,14.278t14.49,31.178a37.544,37.544,0,0,1-7.68,23.456q-7.68,10.053-21.74,15.735t-32.32,5.682q-36.24,0-64.65-21.271l15.08-23.6a70.833,70.833,0,0,0,22.9,11.8,90.547,90.547,0,0,0,27.54,4.225q13.62,0,21.16-4.225t7.54-12.092q0-7.575-7.4-11.656-7.38-4.077-23.91-5.827-28.125-2.624-43.34-14.133t-15.22-30.158a36.057,36.057,0,0,1,7.83-23.019q7.815-9.9,21.88-15.443t32.33-5.536q33.045,0,56.81,16.609l-14.2,23.311a74.993,74.993,0,0,0-41.16-12.239q-15.375,0-23.49,4.225t-8.11,12.093q0,6.993,6.81,10.927T1110.74,132.814ZM981.734,193.131a51.648,51.648,0,0,0,19.716-3.788,41.118,41.118,0,0,0,15.65-11.073l20,21.854a75.168,75.168,0,0,1-55.656,22.728q-22.9,0-40.295-9.324a65.1,65.1,0,0,1-26.815-26.371q-9.424-17.046-9.421-39.482,0-22.142,9.566-39.192a67.251,67.251,0,0,1,26.815-26.516q17.244-9.466,39.86-9.47,31.314,0,54.206,22.145l-19.71,21.272a45.521,45.521,0,0,0-15.36-10.053,49.01,49.01,0,0,0-18.556-3.642q-19.717,0-32.033,12.675T937.38,147.675q0,20.4,12.321,32.926T981.734,193.131ZM777.363,159.913q2.025,15.735,14.2,25.059t31.019,9.324a68.6,68.6,0,0,0,23.481-4.079q11.306-4.077,17.684-10.782l19.712,19.232a74.525,74.525,0,0,1-27.105,18.357,90.627,90.627,0,0,1-34.642,6.7q-23.481,0-41.02-9.47a66.476,66.476,0,0,1-27.105-26.662q-9.565-17.189-9.566-39.919,0-22.142,9.277-39.046a66.334,66.334,0,0,1,26.09-26.371q16.809-9.465,38.845-9.47,34.788,0,54.5,20.105t19.713,55.655q0,3.79-.58,11.364H777.363Zm70.59-49.827q-11.164-9.029-28.845-9.033-16.816,0-27.54,8.742t-13.914,24.767h83.2Q859.113,119.121,847.953,110.086ZM690.978,142.138q0-18.937-9.276-29.43t-25.511-10.489q-17.685,0-28.989,11.8T615.9,143.887v75.76H583.428V75.7h28.989l0.29,18.94q18.262-21.854,49.572-21.854,18.262,0,32.178,8.3a55.359,55.359,0,0,1,21.452,23.457q7.535,15.155,7.537,35.549v79.548H690.978V142.138Zm-156.25-88q-8.989,0-14.785-5.682a18.972,18.972,0,0,1-5.8-14.132q0-9.028,5.8-14.715t14.785-5.682q9.274,0,15.219,5.682t5.943,14.715a18.762,18.762,0,0,1-5.943,14.132Q544,54.14,534.728,54.14ZM444.284,193.131A51.613,51.613,0,0,0,464,189.343,41.132,41.132,0,0,0,479.65,178.27l20,21.854a75.168,75.168,0,0,1-55.659,22.728q-22.9,0-40.3-9.324a65.1,65.1,0,0,1-26.815-26.371q-9.425-17.046-9.422-39.482,0-22.142,9.566-39.192a67.26,67.26,0,0,1,26.816-26.516Q421.088,72.5,443.7,72.5q31.308,0,54.21,22.145L478.2,115.914a45.588,45.588,0,0,0-15.364-10.053,48.987,48.987,0,0,0-18.553-3.642q-19.717,0-32.033,12.675T399.93,147.675q0,20.4,12.321,32.926T444.284,193.131Zm106.678,26.516H518.494V75.7h32.468V219.647Z"/>
</svg>
