<svg id="Logo" xmlns="http://www.w3.org/2000/svg" width="4000" height="1000" viewBox="0 0 4000 1000">
  <defs>
    <style>
      .cls-1, .cls-2 {
        fill: #fff;
      }

      .cls-1 {
        fill-rule: evenodd;
      }

      .cls-3 {
        fill: #019cde;
      }
    </style>
  </defs>
  <g id="design">
    <path class="cls-1" d="M3948.97,845.987v80.584h-34V848.987c-4.6-18.947-23.17-17-27-17-21.09-.929-24,17-24,17v77.584h-39V801.993h35s-0.05,8.471,0,16c12.47-16.7,22.57-16,51-16C3951.82,807.083,3948.97,845.987,3948.97,845.987ZM3616.98,952.973c-18.64,18.136-46.36,15.821-53,16-46.47.178-59-18-59-18l16-24.4c14.96,15.179,45.03,13.54,61,10.4s16-17.6,16-34c-9.73,18.88-40.74,16-45,16-25.43-4.886-33.16-13.927-38-19-19.17-20.249-15-47.307-15-52.993,4.74-18.941,15.78-27.606,19-31,21.14-15.147,23.77-14,48-14s33,14,33,14v-14h35V916.978c-1.03,8.963-1.53,8.239-2.01,9.593C3624.21,949.609,3621.1,949.038,3616.98,952.973Zm-50-122.984a30,30,0,1,0,30,30A30,30,0,0,0,3566.98,829.989Zm-264-40a23,23,0,1,1,23-23A23,23,0,0,1,3302.98,789.994Zm-235.99,61.992c39.86,5.267,38.33,32.939,38,37-11.08,38.213-45.81,37.589-54,37.589-43.41,0-58-14.592-58-14.592l13-25c2.46,0.352,14.44,6.746,21,8,26.28,5.478,38.35.684,41-1,5.28-8.2-2.3-12.049-5-13,0,0-38.15-8.206-44-10-23.64-6.723-21.98-31.66-22-36,4.73-32.154,36.3-32.637,53-33,31.66-3.7,50,10,50,10s-2.95,7.262-11,26c-4.54-3.977-18.19-8-24-9-31-3.468-32.41,4.173-33,5C3030.51,846.259,3027.3,846.543,3066.99,851.986Zm-333,28s4.55,13.635,31,14c6.06-.012,16.12,1.972,30.18-9.33l20.66,20.66c-12.8,12.694-31.28,20.666-51.84,20.666-38.66,0-70-28.2-70-62.992s31.34-62.992,70-62.992c0,0,58.16,5.592,57.05,61.2Zm27-50.994c-10.33.483-29.83,4.93-31.99,28.959a5.855,5.855,0,0,0-.01,2.037l59-11S2782.93,827.647,2760.99,828.989ZM2479,911.979v-0.693a55.723,55.723,0,0,1-38.5,15.691c-32.31,0-58.5-28.427-58.5-63.492s26.19-63.492,58.5-63.492a55.723,55.723,0,0,1,38.5,15.691v-4.693l-0.03-.031C2478.9,791.291,2479,754,2479,754h36V924.977h-36v-13Zm-31-78.99a30,30,0,1,0,30,30A30,30,0,0,0,2448,832.989Zm874.98,92.988h-40V802.992h40V925.977Z"/>
  </g>
  <g id="CONFIA">
    <path id="A" class="cls-1" d="M3778,744l-0.86-66.283A302.653,302.653,0,0,1,3588,744c-170.1,0-308-140.807-308-314.5S3417.9,115,3588,115a302.418,302.418,0,0,1,182.63,61.248L3770,128V115.031h179V744H3778Zm-4.87-374.879h0c-0.7-1.857-1.44-3.7-2.2-5.52-0.07-.155-0.13-0.309-0.2-0.464q-2.28-5.4-4.92-10.59c-0.08-.168-0.17-0.335-0.26-0.5q-2.64-5.154-5.61-10.087c-0.11-.171-0.21-0.341-0.31-0.512q-2.985-4.906-6.29-9.577c-0.12-.165-0.23-0.331-0.35-0.5q-3.33-4.658-6.95-9.06c-0.12-.151-0.24-0.3-0.37-0.452q-1.815-2.188-3.69-4.31c-0.07-.079-0.14-0.155-0.21-0.233q-1.815-2.029-3.69-3.993l-0.36-.382q-1.935-2.022-3.95-3.974c-0.14-.136-0.28-0.269-0.42-0.4q-1.905-1.846-3.88-3.63c-0.1-.093-0.2-0.188-0.3-0.28-1.38-1.237-2.77-2.448-4.19-3.636l-0.6-.5q-2.055-1.707-4.15-3.349l-0.18-.141c-1.45-1.125-2.93-2.22-4.42-3.294-0.25-.18-0.5-0.358-0.75-0.537-2.96-2.117-6.01-4.133-9.12-6.044l-0.87-.531q-4.65-2.814-9.49-5.31c-0.32-.164-0.64-0.329-0.96-0.491-1.6-.814-3.22-1.607-4.86-2.366l-0.38-.174q-2.295-1.056-4.63-2.035c-0.33-.141-0.66-0.284-1-0.424q-2.475-1.023-4.99-1.968c-0.24-.09-0.48-0.174-0.72-0.264q-2.265-.832-4.55-1.595c-0.34-.112-0.67-0.227-1.01-0.337q-2.535-.828-5.11-1.571c-0.32-.093-0.65-0.18-0.97-0.271-1.52-.429-3.06-0.835-4.6-1.219-0.31-.078-0.63-0.161-0.94-0.237q-2.61-.63-5.24-1.17c-0.38-.078-0.77-0.15-1.15-0.226q-2.37-.468-4.77-0.867c-0.26-.044-0.52-0.093-0.79-0.136-1.78-.285-3.58-0.534-5.38-0.758-0.42-.053-0.84-0.1-1.26-0.149-1.69-.2-3.38-0.37-5.09-0.511-0.17-.015-0.34-0.034-0.51-0.047-1.83-.146-3.67-0.251-5.52-0.333-0.45-.02-0.89-0.036-1.33-0.052-1.87-.067-3.75-0.113-5.64-0.113-88.37,0-160,73.873-160,165s71.63,165,160,165c1.93,0,3.86-.048,5.77-0.118,0.43-.016.86-0.032,1.29-0.051,1.88-.084,3.75-0.2,5.61-0.345,0.26-.021.52-0.05,0.79-0.072,1.69-.146,3.38-0.32,5.05-0.52,0.38-.044.75-0.085,1.12-0.132q2.745-.346,5.47-0.788c0.36-.059.72-0.123,1.08-0.185,1.66-.282,3.31-0.588,4.96-0.922,0.24-.05.49-0.095,0.73-0.146,1.81-.376,3.6-0.789,5.38-1.226,0.38-.1.77-0.193,1.15-0.291q5.43-1.38,10.71-3.134c0.36-.12.72-0.239,1.08-0.361,1.74-.592,3.46-1.208,5.18-1.86,0.18-.068.35-0.141,0.53-0.21q2.415-.925,4.78-1.931c0.28-.121.57-0.239,0.86-0.361q2.52-1.088,5-2.259c0.26-.123.52-0.249,0.78-0.373q2.355-1.13,4.68-2.334c0.14-.075.29-0.148,0.43-0.223q2.475-1.3,4.89-2.68c0.27-.153.53-0.307,0.8-0.462q4.875-2.821,9.55-5.981l0.69-.469q2.34-1.607,4.64-3.288l0.12-.093c1.51-1.116,2.99-2.261,4.46-3.429,0.15-.121.31-0.24,0.46-0.362q2.235-1.789,4.41-3.657c0.11-.1.23-0.207,0.35-0.311q2.175-1.884,4.29-3.842a0.231,0.231,0,0,0,.05-0.048q2.145-1.992,4.21-4.065l0.39-.394q4.125-4.145,7.94-8.584c0.11-.12.21-0.241,0.31-0.362q3.885-4.525,7.43-9.339c0.04-.061.09-0.121,0.13-0.182,1.2-1.622,2.36-3.266,3.5-4.933l0.06-.09q3.405-5.028,6.47-10.323c0.04-.08.09-0.16,0.14-0.239q3.015-5.253,5.66-10.749l0.12-.244c1.77-3.7,3.42-7.476,4.92-11.327a0.335,0.335,0,0,0,.04-0.089q1.14-2.914,2.17-5.884h0a170.394,170.394,0,0,0-1.5-115.611h0Z"/>
    <path id="I" class="cls-1" d="M3054.5,115c42.8,0,77.5,31.34,77.5,70s-34.7,70-77.5,70-77.5-31.34-77.5-70S3011.7,115,3054.5,115ZM2993,311h123V743.774H2993V311Z"/>
    <path id="F" class="cls-1" d="M2382,683v60.774h144V515h249V400H2526V344s1.69-107.854,139-105c21.26,0.267,67.93-.938,132,32,34.14-86.056,43-110,43-110s-53.47-41.6-179-45.968c-9.48,0-146.93,6.47-197,61.968-8.3,7.622-57.61,46.913-74,125-2.35,10.772-7.61,19.2-8,112C2381.61,449.921,2382,683,2382,683Z"/>
    <path id="N" class="cls-1" d="M1611,557V743.774h143V386s-9.78-144.357,139-147c15.36,0.388,132.12.168,130,144,0.13,64.131,0,360.774,0,360.774h141V368s8.75-252.968-233-252.968c-69.83,0-163.86,41-182,85.968,0.82-85.968,1-85.968,1-85.968H1611V557Z"/>
    <g id="O">
      <ellipse id="O-2" data-name="O" class="cls-2" cx="1106.5" cy="429.5" rx="332.5" ry="314.5"/>
      <circle id="azul_o_" data-name="azul &quot;o&quot;" class="cls-3" cx="1107" cy="430" r="200"/>
    </g>
    <path id="C" class="cls-1" d="M51.219,426.389s-9.613-136.4,95.963-226.146c8.156-8.089,81.942-83.157,225.915-85.055,18.721-.424,167.957-6.442,255.9,107.069-42.384,38.978-91.965,84.054-91.965,84.054S476.775,209.2,322.116,242.27c-17.283,7.389-123.358,47.317-129.951,168.108-0.554,15.036.434,173,137.948,204.132,17.576,3.565,122.3,37.071,208.921-66.043C626.465,631.049,630,633.522,630,633.522S522.614,769.959,338.11,739.591c-26.1-3.822-89.48-4.8-167.936-64.041C148.449,657.605,54.16,591.2,51.219,426.389Z"/>
  </g>
</svg>
